<?xml version="1.0" standalone="no"?>
<!DOCTYPE svg PUBLIC "-//W3C//DTD SVG 20010904//EN"
 "http://www.w3.org/TR/2001/REC-SVG-20010904/DTD/svg10.dtd">
<svg version="1.0" xmlns="http://www.w3.org/2000/svg"
 width="284.000000pt" height="284.000000pt" viewBox="0 0 284.000000 284.000000"
 preserveAspectRatio="xMidYMid meet">

<g transform="translate(0.000000,284.000000) scale(0.100000,-0.100000)"
fill="#000000" stroke="none">
<path d="M0 1420 l0 -1420 1420 0 1420 0 0 1420 0 1420 -1420 0 -1420 0 0
-1420z m2415 520 l0 -485 -482 -3 -483 -2 0 490 0 490 483 -2 482 -3 0 -485z
m-1465 85 l0 -65 70 0 c68 0 70 -1 70 -25 0 -24 -2 -25 -70 -25 l-70 0 0 -70
c0 -68 -1 -70 -25 -70 -24 0 -25 2 -25 70 l0 70 -70 0 c-68 0 -70 1 -70 25 0
24 2 25 70 25 l70 0 0 65 c0 63 1 65 25 65 24 0 25 -2 25 -65z m478 -1097 l2
-488 -505 0 -505 0 0 483 c0 266 3 487 7 490 3 4 230 6 502 5 l496 -3 3 -487z
m558 83 c48 48 51 49 67 31 16 -17 14 -21 -33 -67 l-50 -49 52 -53 c50 -51 51
-53 33 -67 -18 -14 -24 -11 -65 30 -25 24 -50 44 -55 44 -5 0 -31 -21 -57 -47
-45 -45 -49 -46 -65 -30 -16 16 -15 20 30 65 26 26 47 52 47 58 0 5 -20 30
-45 54 -42 41 -44 45 -28 62 16 18 19 17 68 -32 l50 -50 51 51z"/>
<path d="M1870 2070 c-23 -23 -25 -48 -6 -75 13 -19 11 -20 -58 -20 l-71 0 -3
-32 -3 -33 76 0 c69 0 75 -1 61 -16 -34 -33 -7 -94 42 -94 24 0 62 32 62 53 0
7 -7 23 -16 35 l-15 22 71 0 71 0 -3 33 -3 32 -68 0 c-37 0 -67 2 -67 5 0 3 7
14 15 24 8 11 15 26 15 33 0 20 -37 53 -60 53 -11 0 -29 -9 -40 -20z"/>
<path d="M820 920 l0 -30 105 0 105 0 0 30 0 30 -105 0 -105 0 0 -30z"/>
</g>
</svg>
