<?xml version="1.0" encoding="utf-8" standalone="no"?><!DOCTYPE svg PUBLIC "-//W3C//DTD SVG 1.1//EN" "http://www.w3.org/Graphics/SVG/1.1/DTD/svg11.dtd">
<svg preserveAspectRatio="xMinYMin meet" width="100%" height="100%" viewBox="0 0 525.000 393.750"  version="1.1" xmlns="http://www.w3.org/2000/svg" xmlns:xlink="http://www.w3.org/1999/xlink">
  <desc>Matlab Figure Converted by PLOT2SVG written by Juerg Schwizer</desc>
  <g id="topgroup">
  <rect x="0" y="0" width="525.000" height="393.750" fill="#ffffff" stroke="none" />
  <g id ="ID000000">
  <clipPath id="ID000001">
    <rect x="68.250" y="29.531" width="406.875" height="320.906"/>
  </clipPath>
    <g>
<g id="ID000002" clip-path="url(#ID000001)" >
      <polyline fill="none" stroke="#000000" stroke-width="2.0pt" stroke-dasharray="none" points="68.250,346.882 72.360,346.181 76.470,345.360 80.580,344.403 84.689,343.293 88.799,342.008 92.909,340.530 97.019,338.835 101.129,336.899 105.239,334.699 109.348,332.208 113.458,329.401 117.568,326.250 121.678,322.728 125.788,318.811 129.898,314.472 134.008,309.688 138.117,304.437 142.227,298.700 146.337,292.460 150.447,285.706 154.557,278.430 158.667,270.630 162.777,262.310 166.886,253.479 170.996,244.154 175.106,234.359 179.216,224.126 183.326,213.496 187.436,202.514 191.545,191.239 195.655,179.731 199.765,168.064 203.875,156.313 207.985,144.562 212.095,132.901 216.205,121.422 220.314,110.221 224.424,99.396 228.534,89.045 232.644,79.266 236.754,70.151 240.864,61.793 244.973,54.275 249.083,47.676 253.193,42.064 257.303,37.500 261.413,34.033 265.523,31.700 269.633,30.527 273.742,30.527 277.852,31.700 281.962,34.033 286.072,37.500 290.182,42.064 294.292,47.676 298.402,54.275 302.511,61.793 306.621,70.151 310.731,79.266 314.841,89.045 318.951,99.396 323.061,110.221 327.170,121.422 331.280,132.901 335.390,144.562 339.500,156.313 343.610,168.064 347.720,179.731 351.830,191.239 355.939,202.514 360.049,213.496 364.159,224.126 368.269,234.359 372.379,244.154 376.489,253.479 380.598,262.310 384.708,270.630 388.818,278.430 392.928,285.706 397.038,292.460 401.148,298.700 405.258,304.437 409.367,309.688 413.477,314.472 417.587,318.811 421.697,322.728 425.807,326.250 429.917,329.401 434.027,332.208 438.136,334.699 442.246,336.899 446.356,338.835 450.466,340.530 454.576,342.008 458.686,343.293 462.795,344.403 466.905,345.360 471.015,346.181 475.125,346.882 "/>
<g>
</g>
</g>
    </g>
  </g>
  </g>
</svg>
